<?xml version="1.0" encoding="utf-8"?>
<!-- Generator: Adobe Illustrator 26.3.1, SVG Export Plug-In . SVG Version: 6.00 Build 0)  -->
<svg version="1.1" id="Layer_1" xmlns="http://www.w3.org/2000/svg" xmlns:xlink="http://www.w3.org/1999/xlink" x="0px" y="0px"
	 viewBox="0 0 54.33 61.1" style="enable-background:new 0 0 54.33 61.1;" xml:space="preserve">
<style type="text/css">
	.st0{fill:none;}
	.st1{fill:#00AEEF;}
	.st2{fill:none;stroke:#00AEEF;stroke-width:0.25;stroke-miterlimit:10;}
	.st3{fill:#FFFFFF;}
	.st4{opacity:0.15;fill:#00AEEF;}
</style>
<path d="M36.25,61.1H0V0h35.99c12.25,0,17.66,7.2,17.66,15.25c0,6-3.09,12.51-9.77,14.57v0.26c6.76,1.8,10.45,7.62,10.45,13.7
	C54.33,52.45,48.5,61.1,36.25,61.1 M29.13,13.97H19.11v9.6h9.85c3.94,0,5.57-2.66,5.57-5.32C34.53,16.03,32.82,13.97,29.13,13.97
	 M28.79,36.85h-9.68v9.86h10.02c3.77,0,5.48-2.67,5.48-5.23C34.62,38.91,32.56,36.85,28.79,36.85"/>
</svg>
